%
M48
M72
T01C0.02400
T02C0.03150
T03C0.03937
T04C0.04331
%
T01
X75272Y34130
X76059Y45941
X89445Y64839
X79209Y66413
X60311Y76650
X60311Y100272
X57161Y138854
X79209Y140429
X103618Y130193
X135114Y75075
X112280Y49091
X105193Y45154
T02
X77319Y148500
X67319Y148500
X57319Y148500
T03
X10508Y33933
X20508Y33933
X20508Y43933
X20508Y53933
X10508Y53933
X10508Y43933
X10508Y88933
X20508Y88933
X20508Y98933
X20508Y108933
X10508Y108933
X10508Y98933
X11295Y129760
X21295Y129760
X21295Y139760
X11295Y139760
X11295Y149760
X21295Y149760
X45508Y108933
X55508Y108933
X65508Y108933
X75508Y108933
X85508Y108933
X103776Y149327
X113776Y149327
X123776Y149327
X130508Y58933
X140508Y58933
X140508Y48933
X140508Y38933
X130508Y38933
X130508Y48933
T04
X131846Y108421
X121846Y108421
X141846Y108421
M30
